<?xml version="1.0" encoding="utf-8"?>
<!-- Generator: Adobe Illustrator 25.0.0, SVG Export Plug-In . SVG Version: 6.00 Build 0)  -->
<svg version="1.1" id="图层_1" xmlns="http://www.w3.org/2000/svg" xmlns:xlink="http://www.w3.org/1999/xlink" x="0px" y="0px"
	 viewBox="0 0 209 56.7" style="enable-background:new 0 0 209 56.7;" xml:space="preserve">
<style type="text/css">
	.st0{fill-rule:evenodd;clip-rule:evenodd;}
	.st1{fill:#950040;}
</style>
<path d="M178.6,49.8c0-0.1,0-0.2,0.1-0.2c0.1,0,0.1,0.2,0.1,0.4c0.2,1.2,0.9,2.3,2.2,2.3c0.9,0,1.6-0.3,1.6-1.1c0-2-3.9-1-3.9-3.5
	c0-1.2,1-2,2.2-2c0.9,0,1.4,0.4,1.7,0.4c0.3,0,0.2-0.3,0.4-0.3c0.1,0,0.1,0,0.1,0.2l0.2,1.9c0,0.2,0,0.3,0,0.3c0,0.1,0,0.1-0.1,0.1
	c-0.1,0-0.1-0.2-0.3-0.6c-0.4-1.1-1-1.6-2.1-1.6c-0.6,0-1.2,0.3-1.2,1c0,1.6,4,0.6,4,3.3c0,1.3-1.1,2.3-2.6,2.3
	c-1,0-1.4-0.5-1.8-0.5s-0.3,0.3-0.5,0.3c-0.1,0-0.1,0-0.1-0.1L178.6,49.8L178.6,49.8z"/>
<path d="M164.6,46.7c0-0.8-0.9-0.4-0.9-0.7c0-0.1,0-0.1,0.2-0.1c0.5,0,1,0,1.4,0c1.2,0,2.4,0,3.5,0l0.5,1.9c0,0.2,0.1,0.2,0.1,0.3
	c0,0.1,0,0.1-0.1,0.1c-0.1,0-0.1-0.2-0.5-0.8c-0.5-0.8-1.1-1-2.3-1H166v2.5h0.2c0.7,0,1.2-0.4,1.2-1.1c0-0.2,0-0.2,0.1-0.2
	c0.1,0,0.1,0.1,0.1,0.1v3c0,0.1,0,0.1-0.1,0.1c-0.1,0-0.1,0-0.1-0.2c0-0.9-0.5-1.2-1.2-1.2H166v2.3c0,0.4,0.3,0.5,0.8,0.5
	c1.3,0,2.4-0.9,2.7-1.9c0.1-0.2,0.1-0.3,0.2-0.3c0.1,0,0.1,0,0.1,0.1c0,0.1,0,0.2,0,0.3l-0.4,2.2c-1.3,0-2.6,0-4,0
	c-0.4,0-0.9,0-1.4,0c-0.2,0-0.2-0.1-0.2-0.1c0-0.3,0.9,0.1,0.9-0.7L164.6,46.7L164.6,46.7z"/>
<path d="M145.9,51.1c0,0.8,0.3,1.1,0.6,1.2c0.3,0.1,0.5,0,0.5,0.2c0,0.1,0,0.1-0.1,0.1c-0.3,0-1.1,0-1.5,0c-0.4,0-0.8,0-1.1,0
	c-0.1,0-0.1,0-0.1-0.1c0-0.2,0.3-0.1,0.5-0.2c0.3-0.1,0.6-0.5,0.6-1.2v-4.3c-0.3-0.5-0.6-0.6-0.9-0.6c-0.2,0-0.2,0-0.2-0.1
	c0-0.1,0-0.1,0.1-0.1c0.3,0,0.7,0,1.1,0h1.1l3.1,3.9l0.1,0.2v-2.5c0-0.8-0.3-1.1-0.6-1.2c-0.3-0.1-0.5,0-0.5-0.2
	c0-0.1,0-0.1,0.1-0.1c0.3,0,1,0,1.4,0c0.4,0,0.8,0,1.1,0c0.1,0,0.1,0,0.1,0.1c0,0.2-0.2,0.1-0.5,0.2c-0.3,0.1-0.6,0.5-0.6,1.2v5.1
	c0,0.2,0,0.3-0.1,0.3c-0.1,0-0.2-0.1-0.2-0.2l-4-5l-0.1-0.1L145.9,51.1L145.9,51.1z"/>
<path d="M74.7,49.8c0-0.1,0-0.2,0.1-0.2c0.1,0,0.1,0.2,0.1,0.4c0.2,1.2,0.9,2.3,2.2,2.3c0.9,0,1.6-0.3,1.6-1.1c0-2-3.9-1-3.9-3.5
	c0-1.2,1-2,2.2-2c0.9,0,1.4,0.4,1.7,0.4c0.3,0,0.2-0.3,0.4-0.3c0.1,0,0.1,0,0.1,0.2l0.2,1.9c0,0.2,0,0.3,0,0.3c0,0.1,0,0.1-0.1,0.1
	c-0.1,0-0.1-0.2-0.3-0.6c-0.4-1.1-1-1.6-2.1-1.6c-0.6,0-1.2,0.3-1.2,1c0,1.6,4,0.6,4,3.3c0,1.3-1.1,2.3-2.6,2.3
	c-1,0-1.4-0.5-1.8-0.5c-0.4,0-0.3,0.3-0.5,0.3c-0.1,0-0.1,0-0.1-0.1C74.7,52.5,74.7,49.8,74.7,49.8z"/>
<path d="M81.7,46.7c0-0.8-0.8-0.4-0.8-0.7c0-0.1,0-0.1,0.2-0.1c0.5,0,1,0,1.4,0c0.4,0,0.9,0,1.4,0C84,45.9,84,46,84,46
	c0,0.3-0.8-0.1-0.8,0.7v2.1h2.6v-2.1c0-0.8-0.8-0.4-0.8-0.7c0-0.1,0-0.1,0.2-0.1c0.5,0,1,0,1.4,0s0.9,0,1.4,0C88,45.9,88,46,88,46
	c0,0.3-0.8-0.1-0.8,0.7v5.1c0,0.8,0.8,0.4,0.8,0.7c0,0.1,0,0.1-0.2,0.1c-0.5,0-1,0-1.4,0c-0.4,0-0.9,0-1.4,0c-0.2,0-0.2,0-0.2-0.1
	c0-0.3,0.8,0.1,0.8-0.7v-2.5h-2.6v2.5c0,0.8,0.8,0.4,0.8,0.7c0,0.1,0,0.1-0.2,0.1c-0.5,0-1,0-1.4,0s-0.9,0-1.4,0
	c-0.2,0-0.2,0-0.2-0.1c0-0.3,0.8,0.1,0.8-0.7V46.7z"/>
<path d="M89.9,46.7c0-0.8-0.8-0.4-0.8-0.7c0-0.1,0-0.1,0.2-0.1c0.5,0,1,0,1.4,0c1.2,0,2.4,0,3.5,0l0.5,1.9c0,0.2,0.1,0.2,0.1,0.3
	c0,0.1,0,0.1-0.1,0.1c-0.1,0-0.1-0.2-0.5-0.8c-0.5-0.8-1.1-1-2.3-1h-0.5v2.5h0.2c0.7,0,1.2-0.4,1.2-1.1c0-0.2,0-0.2,0.1-0.2
	c0.1,0,0.1,0.1,0.1,0.1v3c0,0.1,0,0.1-0.1,0.1c-0.1,0-0.1,0-0.1-0.2c0-0.9-0.5-1.2-1.2-1.2h-0.2v2.3c0,0.4,0.3,0.5,0.8,0.5
	c1.3,0,2.4-0.9,2.7-1.9c0.1-0.2,0.1-0.3,0.2-0.3c0.1,0,0.1,0,0.1,0.1c0,0.1,0,0.2,0,0.3l-0.4,2.2c-1.3,0-2.6,0-4,0
	c-0.4,0-0.9,0-1.4,0c-0.2,0-0.2-0.1-0.2-0.1c0-0.3,0.8,0.1,0.8-0.7L89.9,46.7L89.9,46.7z"/>
<path d="M97.7,51.1c0,0.8,0.3,1.1,0.6,1.2c0.3,0.1,0.5,0,0.5,0.2c0,0.1,0,0.1-0.1,0.1c-0.3,0-1.1,0-1.5,0s-0.8,0-1.1,0
	c-0.1,0-0.1,0-0.1-0.1c0-0.2,0.2-0.1,0.5-0.2c0.3-0.1,0.6-0.5,0.6-1.2v-4.3c-0.3-0.5-0.6-0.6-0.9-0.6c-0.2,0-0.2,0-0.2-0.1
	c0-0.1,0-0.1,0.1-0.1c0.3,0,0.7,0,1.1,0h1.1l3.1,3.9l0.1,0.2v-2.5c0-0.8-0.3-1.1-0.6-1.2c-0.3-0.1-0.5,0-0.5-0.2
	c0-0.1,0-0.1,0.1-0.1c0.3,0,1,0,1.4,0c0.4,0,0.8,0,1.1,0c0.1,0,0.1,0,0.1,0.1c0,0.2-0.2,0.1-0.5,0.2c-0.3,0.1-0.6,0.5-0.6,1.2v5.1
	c0,0.2,0,0.3-0.1,0.3c-0.1,0-0.2-0.1-0.2-0.2l-3.9-5l-0.1-0.1C97.7,47.5,97.7,51.1,97.7,51.1z"/>
<path d="M106.4,52.2c1.4,0,1.7-0.3,2.1-0.9c0.4-0.6,0.4-1.2,0.6-1.2c0,0,0.1,0,0.1,0.1c0,0.1,0,0.2-0.1,0.4l-0.4,2.1
	c-0.8,0-1.6,0-2.4,0c-0.8,0-1.6,0-2.4,0c-0.1,0-0.1-0.1-0.1-0.1c0,0,0-0.1,0.1-0.2l3.5-5.9h-0.6c-1.3,0-1.6,0.2-2.1,0.9
	c-0.4,0.7-0.3,0.8-0.5,0.8c-0.1,0-0.1,0-0.1-0.1c0,0,0-0.1,0.1-0.3l0.5-1.9c0.7,0,1.4,0,2.2,0s1.4,0,2.2,0c0.1,0,0.2,0,0.2,0.1
	c0,0-0.1,0.2-0.2,0.3l-3.5,5.9C105.6,52.2,106.4,52.2,106.4,52.2z"/>
<path d="M142.6,50.6c0,1.5-1,2.2-2.4,2.2c-1.5,0-2.5-0.7-2.5-1.7v-4.3c0-0.8-0.9-0.4-0.9-0.7c0-0.1,0-0.1,0.2-0.1c0.5,0,1,0,1.4,0
	c0.4,0,0.9,0,1.4,0c0.2,0,0.2,0.1,0.2,0.1c0,0.3-0.8-0.1-0.8,0.7V51c0,0.8,0.8,1.3,1.5,1.3c0.8,0,1.5-0.6,1.5-1.8v-3
	c0-0.8-0.3-1.3-0.8-1.5c-0.1,0-0.3,0-0.3-0.2c0-0.1,0-0.1,0.1-0.1c0.3,0,0.9,0,1.3,0s0.8,0,1,0c0.1,0,0.1,0.1,0.1,0.1
	c0,0.1-0.1,0.1-0.3,0.2c-0.4,0.2-0.8,0.6-0.8,1.5L142.6,50.6L142.6,50.6z"/>
<path d="M153,46.7c0-0.8-0.9-0.4-0.9-0.7c0-0.1,0-0.1,0.2-0.1c0.5,0,1,0,1.4,0s0.9,0,1.4,0c0.2,0,0.2,0.1,0.2,0.1
	c0,0.3-0.9-0.1-0.9,0.7v5.1c0,0.8,0.9,0.4,0.9,0.7c0,0.1,0,0.1-0.2,0.1c-0.5,0-1,0-1.4,0c-0.4,0-0.9,0-1.4,0c-0.2,0-0.2,0-0.2-0.1
	c0-0.3,0.9,0.1,0.9-0.7V46.7z"/>
<path d="M161.1,47.6c0.1-0.2,0.2-0.5,0.2-0.7c0-1-0.9-0.7-0.9-0.9c0-0.1,0.1-0.1,0.2-0.1c0.3,0,0.7,0,1,0c0.3,0,1,0,1.3,0
	c0.2,0,0.3,0,0.3,0.1c0,0.3-0.8-0.1-1.3,1.3l-2.1,5.2c-0.1,0.1-0.1,0.2-0.2,0.2s-0.1-0.1-0.2-0.2l-2.4-5.8c-0.4-0.8-0.9-0.6-0.9-0.8
	c0,0,0.1-0.1,0.1-0.1c0.5,0,0.9,0,1.4,0c0.4,0,0.9,0,1.3,0c0.2,0,0.2,0,0.2,0.1c0,0.2-0.7-0.1-0.7,0.5c0,0.1,0,0.3,0.1,0.4l1.4,3.5
	L161.1,47.6z"/>
<path d="M174.5,50.1c-0.2-0.5-0.7-0.6-1.3-0.6v2.3c0,0.8,0.9,0.4,0.9,0.7c0,0.1,0,0.1-0.2,0.1c-0.5,0-1,0-1.4,0c-0.4,0-0.9,0-1.4,0
	c-0.2,0-0.2-0.1-0.2-0.1c0-0.3,0.9,0.1,0.9-0.7v-5.1c0-0.8-0.9-0.4-0.9-0.7c0-0.1,0-0.1,0.2-0.1c0.5,0,1,0,1.4,0c0.5,0,0.9,0,1.6,0
	c1.7,0,2.6,0.8,2.6,1.8c0,0.8-0.5,1.5-2.5,1.7v0c1.1,0,1.6,0.2,2,1l0.7,1.4c0.4,0.8,1.1,0.4,1.1,0.7c0,0.1,0,0.1-0.1,0.1
	c-0.4,0-0.7,0-1.1,0h-1.1L174.5,50.1z M173.2,49h0.4c1.1,0,1.6-0.5,1.6-1.3c0-0.9-0.5-1.4-1.4-1.4h-0.6L173.2,49L173.2,49z"/>
<path d="M185.6,46.7c0-0.8-0.9-0.4-0.9-0.7c0-0.1,0-0.1,0.2-0.1c0.5,0,1,0,1.4,0c0.4,0,0.9,0,1.4,0c0.2,0,0.2,0.1,0.2,0.1
	c0,0.3-0.8-0.1-0.8,0.7v5.1c0,0.8,0.8,0.4,0.8,0.7c0,0.1,0,0.1-0.2,0.1c-0.5,0-1,0-1.4,0c-0.4,0-0.9,0-1.4,0c-0.2,0-0.2,0-0.2-0.1
	c0-0.3,0.9,0.1,0.9-0.7V46.7z"/>
<path d="M191.1,46.3c-1.9,0.5-2.1,1.9-2.3,1.9c-0.1,0-0.1,0-0.1-0.1c0,0,0-0.2,0.1-0.4l0.3-1.8c0-0.2,0.1-0.2,0.1-0.2s0.1,0,0.1,0.1
	c0.1,0,0.1,0.1,0.3,0.1h4.4c0.1,0,0.2-0.1,0.2-0.1c0.1,0,0.1-0.1,0.1-0.1s0.1,0,0.1,0.2l0.3,1.8c0,0.2,0.1,0.3,0.1,0.4
	c0,0.1,0,0.1-0.1,0.1c-0.2,0-0.3-1.4-2.3-1.9v5.3c0,0.6,0.3,0.8,0.8,0.8c0.1,0,0.2,0,0.2,0.1c0,0.1-0.1,0.1-0.1,0.1
	c-0.6,0-1.1,0-1.5,0s-1,0-1.5,0c-0.1,0-0.2,0-0.2-0.1c0-0.1,0.1-0.1,0.2-0.1c0.5,0,0.8-0.1,0.8-0.8L191.1,46.3L191.1,46.3z"/>
<path d="M199.1,49.1l0.7-1.1c0.3-0.5,0.4-0.9,0.4-1.2c0-0.7-0.6-0.6-0.6-0.7c0-0.1,0.1-0.1,0.2-0.1c0.3,0,0.7,0,1.1,0
	c0.3,0,0.6,0,0.9,0c0.1,0,0.1,0,0.1,0.1c0,0.2-0.5-0.1-1.4,1.5l-1.2,1.9v2.4c0,0.8,0.8,0.4,0.8,0.7c0,0.1,0,0.1-0.2,0.1
	c-0.5,0-1,0-1.4,0c-0.4,0-0.9,0-1.4,0c-0.2,0-0.2,0-0.2-0.1c0-0.3,0.9,0.1,0.9-0.7v-2.2l-1.6-2.9c-0.4-0.8-1-0.5-1-0.7
	c0-0.1,0.1-0.1,0.2-0.1c0.5,0,0.9,0,1.4,0c0.5,0,0.9,0,1.4,0c0.1,0,0.2,0,0.2,0.1c0,0.2-0.6,0-0.6,0.5c0,0.2,0.1,0.3,0.2,0.5
	L199.1,49.1z"/>
<path d="M111.2,46.7c0-0.8-0.8-0.4-0.8-0.7c0-0.1,0-0.1,0.2-0.1c0.5,0,1,0,1.4,0c0.4,0,0.9,0,1.4,0c0.2,0,0.2,0.1,0.2,0.1
	c0,0.3-0.8-0.1-0.8,0.7v2.1h2.6v-2.1c0-0.8-0.8-0.4-0.8-0.7c0-0.1,0-0.1,0.2-0.1c0.5,0,1,0,1.4,0c0.4,0,0.9,0,1.4,0
	c0.2,0,0.2,0.1,0.2,0.1c0,0.3-0.8-0.1-0.8,0.7v5.1c0,0.8,0.8,0.4,0.8,0.7c0,0.1,0,0.1-0.2,0.1c-0.5,0-1,0-1.4,0c-0.4,0-0.9,0-1.4,0
	c-0.2,0-0.2,0-0.2-0.1c0-0.3,0.8,0.1,0.8-0.7v-2.5h-2.6v2.5c0,0.8,0.8,0.4,0.8,0.7c0,0.1,0,0.1-0.2,0.1c-0.5,0-1,0-1.4,0
	s-0.9,0-1.4,0c-0.2,0-0.2,0-0.2-0.1c0-0.3,0.8,0.1,0.8-0.7V46.7z"/>
<path d="M119.4,46.7c0-0.8-0.8-0.4-0.8-0.7c0-0.1,0-0.1,0.2-0.1c0.5,0,1,0,1.4,0c1.2,0,2.4,0,3.5,0l0.5,1.9c0,0.2,0.1,0.2,0.1,0.3
	c0,0.1,0,0.1-0.1,0.1c-0.1,0-0.1-0.2-0.5-0.8c-0.5-0.8-1.1-1-2.3-1h-0.5v2.5h0.2c0.7,0,1.2-0.4,1.2-1.1c0-0.2,0-0.2,0.1-0.2
	c0.1,0,0.1,0.1,0.1,0.1v3c0,0.1,0,0.1-0.1,0.1c-0.1,0-0.1,0-0.1-0.2c0-0.9-0.5-1.2-1.2-1.2h-0.2v2.3c0,0.4,0.3,0.5,0.8,0.5
	c1.3,0,2.4-0.9,2.7-1.9c0.1-0.2,0.1-0.3,0.2-0.3c0.1,0,0.1,0,0.1,0.1c0,0.1,0,0.2,0,0.3l-0.4,2.2c-1.3,0-2.6,0-4,0
	c-0.4,0-0.9,0-1.4,0c-0.2,0-0.2-0.1-0.2-0.1c0-0.3,0.8,0.1,0.8-0.7L119.4,46.7L119.4,46.7z"/>
<path d="M127.2,51.1c0,0.8,0.3,1.1,0.6,1.2c0.3,0.1,0.5,0,0.5,0.2c0,0.1,0,0.1-0.1,0.1c-0.3,0-1.1,0-1.5,0s-0.8,0-1.1,0
	c-0.1,0-0.1,0-0.1-0.1c0-0.2,0.2-0.1,0.5-0.2c0.3-0.1,0.6-0.5,0.6-1.2v-4.3c-0.3-0.5-0.6-0.6-0.9-0.6c-0.2,0-0.2,0-0.2-0.1
	c0-0.1,0-0.1,0.1-0.1c0.3,0,0.7,0,1.1,0h1.1l3.1,3.9L131,50v-2.5c0-0.8-0.3-1.1-0.6-1.2c-0.3-0.1-0.5,0-0.5-0.2c0-0.1,0-0.1,0.1-0.1
	c0.3,0,1,0,1.4,0c0.4,0,0.8,0,1.1,0c0.1,0,0.1,0,0.1,0.1c0,0.2-0.2,0.1-0.5,0.2c-0.3,0.1-0.6,0.5-0.6,1.2v5.1c0,0.2,0,0.3-0.1,0.3
	c-0.1,0-0.2-0.1-0.2-0.2l-3.9-5l-0.1-0.1L127.2,51.1L127.2,51.1z"/>
<path class="st0" d="M85.1,30.7c-1.2,0.5-2.3,1.8-2.5,2.8c-0.1,1.6,1.3,2.2,2.5,2.7c0.3-0.1,0.5-0.1,0.7-0.5
	c0.4-1.5,0.8-2.3,1.8-3.4c0-0.1,0-0.2,0-0.3C87.3,30.4,86.2,30.2,85.1,30.7"/>
<path class="st0" d="M79.7,28.5c-1.5-0.8-0.6-5.6-0.5-6.8c0.5-1.2,0.9-3.2,0.9-4.4c-1-1.9-1.5-1.7-3-0.8c-2.5,3.3-2.3,6.6-2.2,11
	c0.3,2.2,0.3,6.1,2.5,7.5c2.1-0.4,3.8-4.6,3.7-6.8C80.6,27.3,80.4,28.5,79.7,28.5"/>
<path class="st0" d="M93.4,22.8c0.3-0.1,0.7-0.2,1-0.4c0.8-0.4,1.5-1,0.6-1.9c-0.2,0-0.4,0-0.6,0c-1.4,0-3.9,1-4-1.1
	c0.8-1.2,2.4-3.1,2.5-4.5c-1.1-0.4-1-0.6-1-1.6c0.1-0.1,0.2-0.1,0.3-0.2c0.8-0.5,1.5-1.3,2.2-2.2c0.5-0.6,1-1.3,1.4-1.9
	c1-2.5,0-3.5-1.4-3.8c-1.1-0.2-2.6,0-3.6,0.3c-0.5,0.3-2.3,1.1-2.3,1.5c-0.4,0.3-0.5,0.4-0.6,0.5c-0.8,1.6-0.1,1.9,1.5,2
	c0.7-0.3,2.3-2.6,3.3-1.3c0,0.2-0.2,0.4-0.1,0.6c-0.1,0,0,0,0,0c-0.4,1.1-2.4,2.9-3,3.6c-0.6,1.4,0.3,2.5,0.4,4.2
	c-0.1,0.4-0.2,0.7-0.3,1.1c-0.9,1-1.6,2.7-2.7,3.5c-0.3,0.5-1.3,1.3-1.4,1.8c-0.1,0.1-0.2,0.2-0.3,0.3c-1,0.9-1.8,1.9-2.7,2.7
	c0,0.1,0,0.2,0,0.3c0.6,0.4,1.7,0.8,2.7,0.9h0.5c0.1,0,0.2,0,0.2,0c0.1,0,0-0.1,0-0.1c0-0.1,0-0.2,0-0.3c1-1.2,1.6-2.3,3.3-2.4
	c-0.1,0.2,0,1.7,0.3,9.2c-0.1,0.1,0,0.1-0.7,0.4c0,0-0.1,0-0.1,0c-0.3,0.2-0.7,0.5-0.7,1.1c0.1,0,0,0,0,0c0.2,1.9,0.4,3.3,2,4.6
	c1.3-0.2,1.9-1.8,2.3-3.1c0-1.7,0-1.7-0.1-12.9C92.5,23.3,93,23.1,93.4,22.8"/>
<path class="st0" d="M94.7,27.6c-0.1,0-0.1,0.1-0.2,0.1c-0.7,0.5-1.3,1.5-0.3,2.3c0.5,1.9-0.9,2.3-1.5,3.7c0,0.1,0,0.2,0.1,0.3
	c0.2,0,0.4,0.1,0.6,0.1c0.3-0.1,0.7-0.1,1-0.2c1.9-0.5,4.4-1.3,4-3.8C97.5,28.1,96.4,27.5,94.7,27.6"/>
<path class="st0" d="M78,14.2c1.3-0.1,1.6-0.1,2.6-1c0.1-0.1,0.1-0.1,0.1-0.1c0,0,0,0,0-0.1c0-1.7-0.6-2.9-0.9-3.2
	C76.6,8.3,74.5,12.5,78,14.2"/>
<path class="st0" d="M84.2,15.6c0.2,0,0.3,0,0.5-0.1c0.2-0.1,0.3-0.3,0.4-0.4c0.8-1.1,1.5-3,0.9-4.2c-0.3-0.2-0.6-0.2-0.9-0.2
	C83.3,10.9,81.8,14.3,84.2,15.6"/>
<path class="st0" d="M118.3,25.7c0,0,0,0.1,0,0.1c-0.8,0.7-1.8,2.6-2.8,2.8c-0.2-2.2,0.2-4.5,0.3-6.5c0.6-1.2,0.9-1.2,2.2-1.8
	c0.7-0.4,1.1-0.8,1.4-1.6v0v0v0l0,0v0v0v0v0v0l0,0v0v0v0v0v0v0v0v0l0,0v0l0,0v0v0l0,0v0v0l0,0v0v0v0l0,0v0v0v0v0v0l0,0v0l0,0v0v0v0
	l0,0v0v0v0l0,0v0v0v0l0,0v0v0v0v0v0v0l0,0v0v0v0l0,0v0v0l0,0c-0.1-1.8-0.7-2.2-2.1-2.4c-0.2-1.3-0.1-2.5-0.2-3.7
	c-0.9-0.9-2.4,0.2-2.8,1c-1.7,1.3-0.5,3-0.7,5.1c-0.8,0.6-2,1.4-2.7,2.1c-0.9,2.1-0.5,2.4,1.4,3.2c0.3,1-0.4,3.6-0.5,4.5
	c0.1,1.5-0.2,4.3,1.5,5.4c2.1-0.5,6.2-5.5,6.1-8.1C118.8,25.3,118.6,25.6,118.3,25.7"/>
<path class="st0" d="M120.5,18c0.1,2.7,0,5.4-0.2,8.2c-0.3,0.9-0.8,2.2-0.9,3.4c0,0.2,0,0.4,0,0.6c0,0.3,0.1,0.6,0.2,0.9
	c0.8-0.1,1.6-0.5,2.3-1.5c1.4-3.3,1.9-8.3,1.6-11.9C122.6,15.4,121.2,16.5,120.5,18"/>
<path class="st0" d="M131,9.7c-1.1-0.4-1.6,0-2.4,0.5c0,0.2-0.1,0.4-0.1,0.7c0.3,8.7,0.5,17.7,0.1,26.6c-0.2,0.8-0.4,1.3,0.5,1.9
	c2.1-0.2,2.4-1.1,2.8-3.3c0-2-0.1-9.5,0.1-9.5c-0.1-0.7-0.1-3.3,0-3.5c0-7.3,0-7.3,0-12.2C131.6,10.2,131.4,10,131,9.7"/>
<path class="st0" d="M127.5,17c-1.7-0.7-1.9,2.1-2.4,3.2c-0.2,1.5-1.6,6.5,0.6,7.6c0.5,0,0.8-0.2,1.2-0.5c1.1-3,1-6.6,1.1-9.7
	C128,17.4,127.6,17.1,127.5,17"/>
<path class="st0" d="M165.1,32.2c0-0.1-0.2-0.1-0.2-0.1c-0.2-0.1-0.1-0.1-0.1-0.1c-0.1-0.1-0.2-0.1-0.2-0.2
	c-0.4-0.1-1.2-0.9-1.6-1.2c0-0.1-0.3-0.2-0.3-0.2c-0.5-0.2-0.7-0.6-0.9-0.8c-0.2-0.2-0.3-0.2-0.5-0.4c-0.5-0.3-0.7-0.6-0.8-0.8
	c-0.1-0.1-0.1-0.2-0.2-0.2c-0.4-0.6-0.8-1.1-1.3-1.5c-0.5-0.6-1-1.1-1.4-1.8c-1.1-0.2-1.7,0.3-1.6,1.5c0.5,1.8,1.6,3.7,3,5.3
	c1.4,1.7,3.1,3.2,4.8,4.2c1.7-0.1,3.2,0.1,4.5-1.3c0-0.2,0.1-0.5-0.1-0.7C167.2,33.2,166.1,32.7,165.1,32.2"/>
<path class="st0" d="M159.1,19.5c1.7-0.7,3.4-1.4,2.9-3.9c-0.8-1.1-1.1-1.4-2.1-1.5c-0.3,0.1-0.6,0.3-0.8,0.4
	c-0.8,0.4-1.2,0.7-1.3,0.7c0-1.4,0-2.7-0.3-3.9c-0.7-1.8-0.8-2.1-2.3-2c-1.3,0.3-2.5,1.5-0.6,2.4c0.8,0.8,0.5,4-0.1,4.8
	c-1.7,0.9-3.5,1.7-5.1,2.7c-0.7,0.8-1,1.5-1,2.5c0.4,2.4,1.8,0.8,3.5,1.3c0.2,0.3-0.1,1.8-0.3,2c-0.2,0.7-1.3,3.2-1.6,3.5
	c-0.6,1.9-3.4,4-4.9,4.9c-0.1,0.2-0.3,0.4-0.4,0.6c0.1,1.1,1,1.6,2.2,1.8c1.2-0.1,1.9-0.1,2.9-1c1.8-2.6,3.6-5.6,4.7-8.6
	c0-0.1,0-0.1,0.1-0.2c0.6-1.9,1.7-4.1,2.9-5.5C157.9,19.9,158.5,19.7,159.1,19.5"/>
<path class="st0" d="M187.9,15.8c0.4-0.1,0.6-0.2,0.9-0.3c0.3-0.2,0.5-0.5,0.7-0.9c0.5-2.3,0.8-4.5,1.1-6.7c0-0.9-0.2-1.5-0.5-2.3
	c-0.7-0.3-1.1-0.2-1.3,0.1c-0.1,0.2-0.3,0.5-0.4,0.9c-0.5,1.9-0.9,4-1.3,6C187,13.7,186.7,15,187.9,15.8"/>
<path class="st0" d="M192.5,13.1c0,0.4-0.1,1.3-0.2,1.5c0,0.3-0.3,0.5-0.4,0.7c-0.1,0.1-0.5,0.7-0.6,0.8c-0.7,0.8-0.9,0.5-1.8,1.1
	c-0.2,0.2-0.6,0.4-0.9,0.6c-0.9,0.7-1.7,1.2-3,1.7c-0.3,0.1-0.7,0.5-1,0.6c-0.1,0.5,0.4,0.6,1,0.5c0.5-0.1,1-0.2,1.3-0.3
	c0.6-0.2,1.2-0.5,1.8-0.7c1.3-0.5,2.7-1,4-1.3c0.8-0.1,2.6-0.6,3.7-0.7c0.7,0,0.9,0.1,1.3,0.2c0.6,1.2-1.1,2.3-1.8,2.6
	c0,0.3,0.4,0.4,0.9,0.5c1.9-0.1,4.7-0.4,5.3-3.1c0-2.6-1.7-2.9-3.4-3.1c-0.4,0-1.4,0.1-2.8,0.3c-0.7,0.1-2.2,0.5-2.3,0.4
	c0.3-0.5,1.2-1,1.6-1.4c0.2-1.1-0.5-1.2-0.9-1.7c-0.4-2,1.8-1.4,2.6-2.5c-0.1-0.6-0.6-1-1.2-1.2c-0.4-0.2-0.8-0.4-1-0.5
	c0.2-0.9,1-1,1.7-1.2c1.1-0.8,0.4-3.1-0.1-4.1c-0.9-0.4-2.4-0.7-2.7,0.4c0.1,0,0,0,0,0c0.1,0.9,0.4,1.8,0,2.8
	c-0.3,0.2-0.5,0.1-0.8,0.2c-0.1,0.1-0.4,0.4-0.5,0.5c-0.2,1,0,1.8-0.2,2.2c-0.1,0.1-0.2,0.3-0.3,0.5c-0.5,0.7-1.1,1.6-1.1,2.6
	C191.2,13.1,191.9,12.5,192.5,13.1"/>
<path class="st0" d="M185,16c0.2,0,0.5,0,0.8-0.1c0.2,0,0.5-0.1,0.7-0.3c0-0.8-0.4-1.3-0.7-1.9l0,0c-0.2-1-0.2-1.7,0-2.4
	c0.2-0.8,0.6-1.6,1-2.6c0.1-1.1,0-1.6-0.7-2c-0.1,0-0.2,0-0.3,0c-1.3,0.1-1.5,0.6-2.2,1.8c-0.2,0.5-0.4,1.2-0.6,1.9
	c-0.4,1.4-0.5,2.9,0,4.1C183.3,15.2,183.9,15.7,185,16"/>
<path class="st0" d="M195.1,28.5c-1,0.1-1.7,0.1-2.3-0.4c-0.1-0.1-0.2-0.2-0.4-0.4c0-0.4,0.2-0.7,0.4-1.1c0.4-0.6,1-1.1,1.3-1.7
	c0.5-2.1,0-2.4-1.3-3.4l-0.2-0.2c-0.5-0.1-1.2-0.3-1.6-0.2c-0.1,0-1.5,0-1.8,0.5c-0.1,0.1-0.2,0.8-0.3,0.9c-0.2,0.3,1.2,0.1,1.8,0.8
	c0.5,0.5,0.6,0.8,0.7,1.7c-0.9,1.4-1.4,1.8-0.9,3.7c-0.4,0.1-1,0.3-1.8,0.5c-1.6,0.5-2,0.8-2.4,1c-0.2,0.1-0.6,0.2-0.8,0.3
	c-0.3,0.2-0.4,0.1-2.6,0.2c-0.2,0-0.3,0-0.4,0.1c0,0.3,0.2,0.6,0.4,1c0.5,0.8,0.7,0.9,1.6,1c0.1,0,1.3-0.1,1.5-0.1
	c1.1-0.1,1.9-0.6,2.7-0.8c1.1-0.2,2.3-0.1,2.9,0.3c0.2,1-0.5,2.9-1,3.8c-0.9,0.9-1.3,0.5-1.9-0.4l0-0.1c-0.3-1.2-0.5-1.4-1.4-1.2
	c-0.3,0.9,0.1,2.4,0.2,3.5c0.4,1.1,0.4,1.8,1.2,2.3c0.2,0.1,0.5,0.3,0.8,0.4c1.5-0.2,2.2-0.8,3.2-2.2l0-0.1c0.1-0.1,0.2-0.1,0.2-0.2
	c1.1-2.1,1.8-4,1.5-6.4c0.7-0.6,3-0.6,4-0.4c0.4,0.2,1.1,0.3,1.6,0.7c1.6,0,2.9-2.4,1.6-4C199.3,27.4,197.4,28.1,195.1,28.5"/>
<path class="st0" d="M183,22.4c0.3-1.5,0.7-3.6,0.1-4.7c0,0,0,0-0.1,0c-1.6-0.4-3,3-3.6,4.2c-0.5,2.5-0.9,3.6,1.9,4.5
	c1.2-0.3,1.3-1.9,1.5-3.1C182.8,23,182.9,22.7,183,22.4"/>
<path class="st0" d="M85.2,16.6L85.2,16.6C85.1,16.6,85.1,16.6,85.2,16.6c-0.1,0.2-0.4,0.4-0.4,0.5c-0.1,0.7-0.1,1.1,0.1,1.4
	c0,0,0,0,0,0c0,0,0,0,0,0c0.1,0.1,0.1,0.1,0.2,0.2c0.1,0.1,0.1,0.1,0.2,0.2c0,0,0,0,0,0c0,0,0,0,0,0l0,0c0.3,0.2,0.6,0.3,1.1,0.5
	c1.5-0.5,2-2,2.2-3.6C88.3,13.3,86,15.2,85.2,16.6"/>
<path class="st1" d="M37.5,7c-0.2,1-1,1.4-1.9,1.3c-1.1-0.2-1.7-0.8-1.6-1.5l0.5-3c0.1-0.6-0.5-0.4-0.5-0.6c0-0.1,0-0.1,0.2-0.1
	c0.3,0.1,0.7,0.1,1,0.2c0.3,0,0.6,0.1,1,0.1c0.1,0,0.1,0.1,0.1,0.1c0,0.2-0.6-0.2-0.7,0.4l-0.5,3c-0.1,0.6,0.3,1.1,0.9,1.2
	c0.7,0.1,1.3-0.3,1.4-1.1l0.3-2.1c0.1-0.6-0.1-1-0.4-1.1c-0.1-0.1-0.2-0.1-0.2-0.1c0,0,0-0.1,0.1-0.1c0.2,0,0.5,0.1,0.7,0.1
	c0.3,0,0.6,0.1,0.7,0.1c0.1,0,0.1,0.1,0.1,0.1c0,0.1-0.1,0.1-0.2,0.1c-0.3,0.1-0.6,0.4-0.7,1L37.5,7z"/>
<path class="st1" d="M39.6,8c-0.2,0.5-0.1,0.8,0,1c0.2,0.2,0.3,0.2,0.3,0.3c0,0,0,0.1-0.1,0c-0.2-0.1-0.5-0.2-0.7-0.3
	c-0.3-0.1-0.5-0.2-0.7-0.3c-0.1,0-0.1-0.1-0.1-0.1c0-0.1,0.2,0,0.4,0c0.2,0,0.5-0.1,0.8-0.6l1.2-2.8c-0.1-0.4-0.2-0.6-0.4-0.7
	c-0.1-0.1-0.1-0.1-0.1-0.1c0-0.1,0.1-0.1,0.1,0c0.2,0.1,0.5,0.2,0.7,0.3l0.7,0.3l1,3.9l0,0l0.8-1.9c0.2-0.5,0.1-0.8,0-1
	c-0.2-0.2-0.3-0.2-0.3-0.3c0,0,0-0.1,0.1,0c0.2,0.1,0.5,0.2,0.7,0.3c0.3,0.1,0.5,0.2,0.7,0.3c0.1,0,0.1,0.1,0.1,0.1
	c0,0.1-0.2,0-0.4,0c-0.2,0-0.5,0.1-0.8,0.6l-1.5,3.3c0,0.1-0.1,0.2-0.2,0.2c-0.1,0-0.1-0.1-0.1-0.2l-1.2-4.9h0L39.6,8z"/>
<path class="st1" d="M46.3,8c0.3-0.5-0.3-0.6-0.2-0.8c0,0,0.1-0.1,0.2,0c0.3,0.2,0.6,0.4,0.8,0.6s0.5,0.4,0.8,0.6
	c0.1,0.1,0.1,0.1,0.1,0.2c-0.1,0.2-0.5-0.4-0.8,0l-2.1,3c-0.3,0.5,0.3,0.6,0.2,0.8c0,0-0.1,0.1-0.2,0c-0.3-0.2-0.6-0.4-0.8-0.6
	s-0.5-0.4-0.8-0.6c-0.1-0.1-0.1-0.1-0.1-0.2c0.1-0.2,0.5,0.4,0.8,0L46.3,8z"/>
<path class="st1" d="M50.7,12.8c0.1-0.1,0.3-0.1,0.4-0.2c0.5-0.5,0-0.8,0.1-0.9c0,0,0.1,0,0.1,0c0.2,0.2,0.3,0.4,0.5,0.5
	c0.2,0.2,0.3,0.3,0.5,0.5c0.1,0.1,0.1,0.2,0.1,0.2c-0.2,0.1-0.3-0.5-1.3-0.1l-3.8,1.5c-0.1,0-0.2,0.1-0.2,0c0,0,0-0.1,0-0.2l1.8-4.1
	c0.3-0.6-0.1-0.8,0-0.9c0,0,0.1,0,0.1,0c0.2,0.3,0.5,0.5,0.7,0.7c0.2,0.2,0.5,0.5,0.7,0.7c0.1,0.1,0.1,0.1,0.1,0.2
	c-0.1,0.1-0.3-0.4-0.6-0.1c-0.1,0.1-0.1,0.1-0.2,0.2l-1.3,2.7L50.7,12.8z"/>
<path class="st1" d="M52.8,14.4c0.5-0.3-0.1-0.7,0.1-0.8c0,0,0.1,0,0.2,0.1c0.2,0.3,0.3,0.6,0.5,0.9c0.5,0.8,0.9,1.5,1.3,2.2l-1,1
	c-0.1,0.1-0.1,0.1-0.1,0.1c0,0-0.1,0-0.1,0c0,0,0.1-0.1,0.3-0.6c0.3-0.6,0.3-1.1-0.1-1.8L53.6,15l-1.7,1l0.1,0.1
	c0.2,0.4,0.8,0.5,1.2,0.3c0.1-0.1,0.2-0.1,0.2,0c0,0,0,0.1,0,0.1l-1.8,1.1c0,0-0.1,0-0.1,0c0-0.1,0-0.1,0.1-0.2
	c0.5-0.3,0.6-0.8,0.4-1.2l-0.1-0.1l-1.5,0.9c-0.3,0.2-0.4,0.4-0.1,0.8c0.6,0.9,1.5,1,2.2,0.9c0.1,0,0.2-0.1,0.2,0c0,0,0,0.1,0,0.1
	c0,0-0.1,0-0.2,0.1l-1.5,0.5c-0.5-0.8-0.9-1.6-1.5-2.4c-0.1-0.2-0.3-0.5-0.5-0.8c-0.1-0.1,0-0.1,0-0.2c0.2-0.1,0.2,0.6,0.7,0.3
	L52.8,14.4z"/>
<path class="st1" d="M53.8,22.3c0.3-0.3,0.3-0.6,0.2-1l-1.6,0.5c-0.5,0.2-0.1,0.7-0.3,0.7c0,0-0.1,0-0.1-0.1
	c-0.1-0.3-0.2-0.7-0.3-0.9c-0.1-0.3-0.2-0.6-0.3-0.9c0-0.1,0-0.1,0-0.2c0.2-0.1,0.1,0.6,0.6,0.4l3.5-1c0.5-0.2,0.1-0.7,0.3-0.7
	c0,0,0.1,0,0.1,0.1c0.1,0.3,0.2,0.7,0.3,0.9c0.1,0.3,0.2,0.6,0.3,1.1c0.3,1.2,0,1.9-0.7,2.1c-0.6,0.2-1.1,0-1.7-1.4h0
	c0.2,0.7,0.2,1.2-0.3,1.6l-0.8,0.8c-0.5,0.4-0.1,0.8-0.2,0.9c0,0-0.1,0-0.1,0c-0.1-0.2-0.1-0.5-0.2-0.7l-0.2-0.7L53.8,22.3z
	 M54.1,21.3l0.1,0.3c0.2,0.8,0.7,1,1.4,0.8c0.7-0.2,0.9-0.7,0.8-1.2l-0.1-0.4L54.1,21.3z"/>
<path class="st1" d="M54.7,25.5c0.1,0,0.1,0,0.1,0.1c0,0.1-0.1,0.1-0.2,0.1c-0.9,0.2-1.8,0.6-1.7,1.6c0,0.7,0.4,1.1,1,1.1
	c1.4-0.1,0.6-2.8,2.3-2.9c0.8,0,1.5,0.6,1.5,1.5c0,0.7-0.2,1-0.2,1.2c0,0.2,0.2,0.1,0.2,0.2c0,0,0,0.1-0.1,0.1l-1.3,0.2
	c-0.1,0-0.2,0-0.2,0c0,0-0.1,0-0.1,0c0-0.1,0.2-0.1,0.4-0.2c0.8-0.3,1.2-0.8,1.2-1.5c0-0.5-0.3-0.9-0.8-0.9c-1.2,0.1-0.4,2.9-2.3,3
	c-0.9,0-1.7-0.7-1.7-1.8c0-0.7,0.3-1,0.3-1.3c0-0.3-0.2-0.2-0.3-0.3c0,0,0-0.1,0.1-0.1L54.7,25.5z"/>
<path class="st1" d="M56.9,31.1c0.6,0.1,0.4-0.6,0.6-0.5c0.1,0,0.1,0,0.1,0.2c0,0.4-0.1,0.7-0.1,1c0,0.3-0.1,0.6-0.1,1
	c0,0.1,0,0.1-0.1,0.1c-0.2,0,0.2-0.6-0.4-0.7l-3.6-0.5c-0.6-0.1-0.4,0.6-0.6,0.5c-0.1,0-0.1,0-0.1-0.2c0-0.4,0.1-0.7,0.1-1
	c0-0.3,0.1-0.6,0.1-1c0-0.1,0-0.1,0.1-0.1c0.2,0-0.2,0.6,0.4,0.7L56.9,31.1z"/>
<path class="st1" d="M56.3,35.8c0.1-1.4-0.9-1.8-0.9-2c0,0,0,0,0.1,0c0,0,0.1,0.1,0.2,0.1l1.2,0.6c0.1,0,0.1,0.1,0.1,0.1
	c0,0,0,0.1-0.1,0.1c0,0-0.1,0.1-0.1,0.2l-1,3c0,0.1,0,0.2,0,0.2c0,0,0,0.1,0,0.1s0,0-0.2,0L54.4,38c-0.1,0-0.2,0-0.2-0.1
	c0,0-0.1,0,0-0.1c0-0.2,1.1,0.1,1.9-1.1l-3.7-1.2c-0.4-0.1-0.6,0-0.7,0.4c0,0.1-0.1,0.1-0.1,0.1c0,0-0.1-0.1,0-0.1
	c0.1-0.4,0.3-0.7,0.4-1c0.1-0.3,0.2-0.7,0.3-1c0-0.1,0.1-0.1,0.1-0.1c0.1,0,0.1,0.1,0,0.2c-0.1,0.3-0.1,0.6,0.3,0.7L56.3,35.8z"/>
<path class="st1" d="M51.5,40.7l0.5,1c0.2,0.3,0.4,0.6,0.6,0.7c0.4,0.2,0.6-0.2,0.7-0.1c0,0,0,0.1,0,0.2c-0.1,0.2-0.2,0.3-0.4,0.6
	c-0.1,0.2-0.2,0.4-0.3,0.6c0,0-0.1,0.1-0.1,0c-0.1-0.1,0.2-0.2-0.4-1.4l-0.7-1.4l-1.4-0.9c-0.5-0.3-0.6,0.4-0.7,0.3
	c0,0-0.1-0.1,0-0.2c0.2-0.3,0.4-0.6,0.5-0.8c0.2-0.2,0.3-0.5,0.5-0.8c0.1-0.1,0.1-0.1,0.2-0.1c0.2,0.1-0.4,0.5,0.1,0.8l1.3,0.8
	l2.3,0.1c0.6,0,0.7-0.4,0.8-0.3c0,0,0,0.1,0,0.1c-0.2,0.3-0.4,0.6-0.5,0.8c-0.2,0.3-0.3,0.6-0.5,0.8c-0.1,0.1-0.1,0.1-0.1,0.1
	c-0.1-0.1,0.2-0.4-0.1-0.6c-0.1-0.1-0.2-0.1-0.4-0.1L51.5,40.7z"/>
<path class="st1" d="M14.6,42.2c-0.1,0.1-0.1,0-0.1,0c0-0.1,0.1-0.1,0.1-0.2c0.6-0.6,1.2-1.4,0.6-2.3c-0.4-0.6-0.9-0.7-1.4-0.4
	c-1.2,0.8,1,2.7-0.5,3.7c-0.7,0.5-1.6,0.2-2.1-0.5c-0.4-0.6-0.3-1-0.4-1.2c-0.1-0.2-0.2,0-0.3-0.1c0,0,0-0.1,0.1-0.1l1-0.8
	c0.1-0.1,0.1-0.1,0.2-0.2c0,0,0.1,0,0.1,0c0,0.1-0.1,0.2-0.2,0.4c-0.5,0.7-0.6,1.3-0.2,1.9c0.3,0.4,0.7,0.6,1.1,0.3
	c1-0.6-1.2-2.7,0.4-3.7c0.8-0.5,1.8-0.3,2.4,0.6c0.4,0.6,0.3,1,0.4,1.3c0.2,0.2,0.3,0.1,0.4,0.2c0,0,0,0.1,0,0.1L14.6,42.2z"/>
<path class="st1" d="M9.6,38c-0.5,0.2-0.1,0.7-0.3,0.7c-0.1,0-0.1,0-0.1-0.1C9.1,38.3,9,38,8.9,37.7c-0.1-0.3-0.2-0.6-0.3-0.9
	c0-0.1,0-0.2,0-0.2c0.2-0.1,0.1,0.6,0.6,0.4l1.5-0.5l-0.6-1.8l-1.5,0.5c-0.5,0.2-0.1,0.7-0.3,0.7c-0.1,0-0.1,0-0.1-0.1
	C8.2,35.6,8.1,35.3,8,35c-0.1-0.3-0.2-0.6-0.3-0.9c0-0.1,0-0.1,0-0.2c0.2-0.1,0.1,0.6,0.6,0.4l3.4-1.2c0.5-0.2,0.1-0.7,0.3-0.7
	c0.1,0,0.1,0,0.1,0.1c0.1,0.3,0.2,0.7,0.3,0.9c0.1,0.3,0.2,0.6,0.3,0.9c0,0.1,0,0.2,0,0.2c-0.2,0.1-0.1-0.6-0.6-0.4l-1.8,0.6
	l0.6,1.8l1.8-0.6c0.5-0.2,0.1-0.7,0.3-0.7c0.1,0,0.1,0,0.1,0.1c0.1,0.3,0.2,0.7,0.3,0.9c0.1,0.3,0.2,0.6,0.3,0.9c0,0.1,0,0.1,0,0.2
	c-0.2,0.1-0.1-0.6-0.6-0.4L9.6,38z"/>
<path class="st1" d="M7.8,31.1c-0.6,0-0.3,0.6-0.5,0.6c-0.1,0-0.1,0-0.1-0.1c0-0.4,0-0.7,0-1c0-0.9-0.1-1.7-0.1-2.5l1.3-0.4
	c0.1,0,0.2,0,0.2,0c0,0,0.1,0,0.1,0.1c0,0.1-0.1,0.1-0.6,0.4c-0.5,0.4-0.8,0.8-0.8,1.7l0,0.4l2-0.1l0-0.2c0-0.5-0.4-0.8-0.9-0.8
	c-0.1,0-0.2,0-0.2-0.1c0,0,0-0.1,0.1-0.1l2.2-0.1c0.1,0,0.1,0,0.1,0.1c0,0.1,0,0.1-0.2,0.1c-0.6,0.1-0.9,0.4-0.9,0.9l0,0.2l1.8-0.1
	c0.3,0,0.5-0.2,0.5-0.6c-0.1-1.1-0.9-1.7-1.6-1.8c-0.1,0-0.2,0-0.2-0.1c0,0,0-0.1,0.1-0.1c0,0,0.1,0,0.2,0l1.6,0.2
	c0,0.9,0.1,1.9,0.1,2.8c0,0.3,0.1,0.6,0.1,1c0,0.1,0,0.1-0.1,0.1c-0.2,0,0.1-0.6-0.5-0.6L7.8,31.1z"/>
<path class="st1" d="M11,25.3c0.6,0.1,0.8,0,1-0.2c0.1-0.2,0.1-0.4,0.2-0.3c0,0,0.1,0,0.1,0.1c-0.1,0.2-0.1,0.5-0.2,0.8
	c-0.1,0.3-0.1,0.5-0.2,0.8c0,0.1-0.1,0.1-0.1,0.1c-0.1,0,0-0.2-0.1-0.4c0-0.2-0.2-0.5-0.8-0.6l-3-0.7c-0.4,0.2-0.5,0.3-0.6,0.5
	c0,0.1-0.1,0.2-0.1,0.1c-0.1,0-0.1,0-0.1-0.1c0.1-0.2,0.1-0.5,0.2-0.7l0.2-0.8l3.6-1.8v0l-2-0.5c-0.6-0.1-0.8,0-1,0.2
	C8,22,8.1,22.2,8,22.2c0,0-0.1,0-0.1-0.1C8,21.8,8,21.6,8.1,21.3c0.1-0.3,0.1-0.5,0.2-0.8c0-0.1,0.1-0.1,0.1-0.1
	c0.1,0,0,0.2,0.1,0.4c0,0.2,0.2,0.5,0.8,0.6l3.5,0.8c0.1,0,0.2,0.1,0.2,0.1c0,0.1-0.1,0.1-0.2,0.1l-4.5,2.2v0L11,25.3z"/>
<path class="st1" d="M13.6,19.8c0.3-0.7,0.2-1.3-0.1-1.8c-0.3-0.5-0.6-0.6-0.6-0.8c0,0,0.1,0,0.1,0c0,0,0.1,0.1,0.2,0.2l1.2,0.9
	c-0.2,0.5-0.5,1-0.7,1.5c-0.2,0.5-0.5,1-0.7,1.6c0,0-0.1,0.1-0.1,0c0,0-0.1-0.1-0.1-0.1L10,17.1l-0.2,0.4c-0.3,0.7-0.3,1.3,0.1,1.8
	c0.3,0.5,0.4,0.5,0.4,0.5c0,0,0,0-0.1,0c0,0-0.1,0-0.1-0.1l-1.1-0.9c0.2-0.5,0.4-0.9,0.7-1.4C9.8,17,10,16.5,10.3,16
	c0-0.1,0.1-0.1,0.1-0.1c0,0,0.1,0.1,0.1,0.2l2.9,4.2L13.6,19.8z"/>
<path class="st1" d="M11.9,14.5c-0.4-0.4-0.6,0.3-0.8,0.2c0,0-0.1-0.1,0-0.2c0.2-0.3,0.4-0.5,0.6-0.8c0.2-0.2,0.4-0.5,0.6-0.8
	c0.1-0.1,0.1-0.1,0.2,0c0.1,0.1-0.4,0.4,0,0.8l1.3,1l1.1-1.4l-1.3-1c-0.4-0.4-0.6,0.3-0.8,0.2c0,0-0.1-0.1,0-0.2
	c0.2-0.3,0.4-0.5,0.6-0.8c0.2-0.2,0.4-0.5,0.6-0.8c0.1-0.1,0.1-0.1,0.2,0c0.1,0.1-0.4,0.4,0,0.8l2.8,2.3c0.4,0.4,0.6-0.3,0.8-0.2
	c0,0,0,0.1,0,0.2c-0.2,0.3-0.5,0.5-0.6,0.8c-0.2,0.2-0.4,0.5-0.6,0.8c-0.1,0.1-0.1,0.1-0.2,0c-0.2-0.1,0.4-0.4,0-0.8l-1.4-1.2
	l-1.1,1.4l1.4,1.2c0.4,0.4,0.6-0.3,0.8-0.2c0,0,0,0.1,0,0.2c-0.2,0.3-0.4,0.5-0.6,0.8c-0.2,0.2-0.4,0.5-0.6,0.8
	c-0.1,0.1-0.1,0.1-0.2,0c-0.1-0.1,0.4-0.4,0-0.8L11.9,14.5z"/>
<path class="st1" d="M16.8,9.2c-0.3-0.5-0.7,0.1-0.8,0c0,0,0-0.1,0.1-0.2c0.3-0.2,0.6-0.4,0.8-0.6c0.7-0.5,1.4-1,2-1.5L20,7.8
	C20,7.9,20.1,8,20.1,8c0,0,0,0.1,0,0.1c0,0-0.1-0.1-0.6-0.3c-0.6-0.2-1.1-0.2-1.8,0.3l-0.3,0.2l1.2,1.6l0.1-0.1
	c0.4-0.3,0.5-0.8,0.2-1.2c-0.1-0.1-0.1-0.2,0-0.2c0,0,0.1,0,0.1,0l1.2,1.8c0,0,0,0.1,0,0.1c-0.1,0-0.1,0-0.2-0.1
	c-0.4-0.5-0.9-0.5-1.3-0.3l-0.1,0.1l1,1.4c0.2,0.3,0.4,0.3,0.8,0.1c0.9-0.6,0.9-1.6,0.7-2.3c0-0.1-0.1-0.2,0-0.2c0,0,0.1,0,0.1,0
	s0.1,0.1,0.1,0.2l0.6,1.5c-0.8,0.5-1.5,1.1-2.3,1.6c-0.2,0.2-0.5,0.4-0.8,0.6c-0.1,0.1-0.1,0-0.2,0c-0.1-0.2,0.5-0.3,0.2-0.8
	L16.8,9.2z"/>
<path class="st1" d="M23.3,8.8c0.2,0.5,0.5,0.7,0.7,0.7c0.2,0,0.4-0.1,0.4,0c0,0,0,0.1-0.1,0.1c-0.2,0.1-0.5,0.2-0.8,0.3
	S23,10,22.8,10.1c-0.1,0-0.1,0-0.1,0c0-0.1,0.1-0.1,0.3-0.3c0.2-0.2,0.3-0.5,0.1-1L22,5.9c-0.3-0.2-0.5-0.2-0.8-0.2
	c-0.1,0-0.2,0-0.2,0c0-0.1,0-0.1,0-0.1c0.2-0.1,0.5-0.2,0.7-0.2l0.7-0.3L26,7.2h0l-0.7-1.9c-0.2-0.5-0.5-0.7-0.7-0.7
	c-0.2,0-0.4,0.1-0.4,0c0,0,0-0.1,0.1-0.1c0.2-0.1,0.5-0.2,0.8-0.3s0.5-0.2,0.8-0.3c0.1,0,0.1,0,0.1,0c0,0.1-0.1,0.1-0.3,0.3
	c-0.2,0.2-0.3,0.5-0.1,1l1.3,3.4c0,0.1,0.1,0.2,0,0.2c-0.1,0-0.1,0-0.2-0.1l-4.3-2.6h0L23.3,8.8z"/>
<path class="st1" d="M20.5,47.8c0,0.4-0.3,0.7-0.7,0.7s-0.7-0.3-0.7-0.7c0-0.4,0.3-0.7,0.7-0.7C20.2,47.1,20.5,47.4,20.5,47.8"/>
<path class="st1" d="M45.5,47.8c0,0.4-0.3,0.7-0.7,0.7s-0.7-0.3-0.7-0.7c0-0.4,0.3-0.7,0.7-0.7S45.5,47.4,45.5,47.8"/>
<path class="st1" d="M32.3,56.7c-3.8,0-7.5-0.8-11-2.2c-3.4-1.4-6.4-3.5-9-6.1s-4.7-5.6-6.1-9C4.8,35.9,4,32.2,4,28.3
	s0.8-7.5,2.2-11c1.4-3.4,3.5-6.4,6.1-9s5.6-4.6,9-6.1c3.5-1.5,7.2-2.2,11-2.2s7.5,0.8,11,2.2c3.4,1.4,6.4,3.5,9,6.1s4.7,5.6,6.1,9
	c1.5,3.5,2.2,7.2,2.2,11c0,3.8-0.8,7.5-2.2,11c-1.4,3.4-3.5,6.4-6.1,9s-5.6,4.7-9,6.1C39.9,55.9,36.2,56.7,32.3,56.7 M32.3,1.3
	c-14.9,0-27,12.1-27,27c0,14.9,12.1,27,27,27c14.9,0,27-12.1,27-27C59.4,13.4,47.2,1.3,32.3,1.3"/>
<path class="st1" d="M24.9,51.7c-0.1,0.3,0,0.5,0.4,0.6c0.4,0.1,0.4,0.2,0.4,0.3c0,0-0.1,0.1-0.1,0c-0.5-0.2-0.9-0.3-1.3-0.4
	c-0.5-0.2-0.9-0.3-1.4-0.5c-0.1,0-0.1-0.1-0.1-0.1c0-0.1,0.1-0.1,0.5,0c0.4,0.1,0.6,0,0.7-0.3l1-3.1c0-0.2,0-0.2-0.1-0.2L24,47.7
	c-0.1,0-0.1-0.1-0.1-0.1c0-0.1,0.1,0,0.8,0.1c0.9,0.2,1.3-0.1,1.5,0c0.1,0,0.1,0.1,0,0.2L24.9,51.7z"/>
<path class="st1" d="M29.9,48.5c1.1,0.1,1.8,1.1,1.6,2.3c-0.2,2-2.9,2.5-3.2,2.5c0,0,0,0,0-0.1c0-0.1,1.5-0.3,2.1-2
	c-0.3,0.2-0.6,0.2-1,0.2c-1.1-0.1-1.6-0.9-1.5-1.6C28,48.9,28.7,48.3,29.9,48.5 M29.6,51.2c0.3,0,0.7-0.2,0.8-0.3
	c0-0.1,0.1-0.3,0.1-0.6c0.1-1.3-0.2-1.7-0.7-1.7c-0.4,0-0.8,0.2-0.9,1.2C28.8,50.8,29.1,51.2,29.6,51.2"/>
<path class="st1" d="M33.5,51c-0.4-0.3-0.6-0.6-0.7-1c-0.1-0.8,0.6-1.4,1.6-1.5c0.8-0.1,1.5,0.4,1.5,1c0,0.4-0.2,0.8-0.5,1.1
	c0.5,0.1,0.9,0.6,1,1.2c0.1,0.8-0.7,1.5-1.8,1.6c-1,0.1-1.7-0.4-1.8-1.2C32.8,51.8,33,51.3,33.5,51 M34.6,53.3c0.7-0.1,1-0.5,1-1.1
	c0-0.4-0.2-0.7-1-0.9c-0.7-0.2-0.8-0.3-0.9-0.2c-0.1,0-0.4,0.4-0.4,1C33.4,52.8,33.9,53.3,34.6,53.3 M34.5,48.6
	c-0.5,0-0.8,0.4-0.8,0.9c0.1,0.7,1.2,0.9,1.7,1c0.2-0.2,0.3-0.4,0.2-0.9C35.5,48.9,35.1,48.6,34.5,48.6"/>
<path class="st1" d="M40.1,49.3c0.5,0.2,1,0.4,1.1,1c0.3,0.9-0.4,1.9-1.3,2.2c-1,0.3-1.7,0.1-1.9-0.4c-0.1-0.3,0-0.6,0.3-0.7
	c0.3-0.1,0.5,0.1,0.7,0.5c0.2,0.5,0.5,0.6,0.8,0.5c0.5-0.2,0.8-0.7,0.6-1.4c-0.2-0.6-0.6-0.9-1.1-0.9c-0.3,0-0.5,0.2-0.6,0.1
	c0-0.2,0.3-0.1,0.5-0.4c0.2-0.2,0.2-0.5,0.1-0.9c-0.2-0.5-0.6-0.7-1.1-0.5c-0.7,0.2-0.6,0.8-0.8,0.8c0,0-0.1,0-0.1,0
	c-0.1-0.2,0.2-1.1,1.1-1.4c0.7-0.2,1.4,0,1.7,0.7C40.3,48.7,40.2,49,40.1,49.3"/>
<path class="st1" d="M27.5,30.7c0.1,0,0.1,0,0.2,0c0.2,0,0.3-0.1,0.4-0.1c0,0,0.1,0,0.1,0c0-0.1-0.3-0.2-0.4-0.2
	c-0.2,0-0.5,0.2-0.5,0.2C27.3,30.6,27.4,30.7,27.5,30.7"/>
<path class="st1" d="M29.2,34.2c0.1-0.4-0.1-0.3-0.9-0.3c-0.4,0-1.8,0-2.2,0c-0.2,0-0.2,0.2-0.2,0.3c0,0.3-0.1,0.3,1.4,0.3l0.6,0
	C28.8,34.3,29,34.5,29.2,34.2"/>
<path class="st1" d="M44.2,20.9c0,0.4,0.2,0.7,0.4,1l0,0l4.5,4.5l0,0c0.2,0.2,0.4,0.6,0.4,0.9v-5.6c0-0.3-0.2-0.6-0.3-0.8l-9.4-9.4
	c-0.2-0.2-0.5-0.3-0.8-0.3h-0.7l0,0c-0.2,0-0.3,0.1-0.3,0.3v4.4c0,0.3-0.2,0.5-0.5,0.5H37v-4.3c0-0.5-0.4-1-1-1h-7.2
	c-0.5,0-1,0.4-1,1v4.3h-0.5c-0.3,0-0.5-0.2-0.5-0.5v-4.5c0-0.2-0.1-0.3-0.3-0.3l0,0h-0.7c-0.3,0-0.6,0.1-0.8,0.3l-9.4,9.4
	c-0.2,0.2-0.3,0.5-0.3,0.8v5.6c0-0.4,0.1-0.7,0.4-0.9l4.5-4.5l0,0c0.2-0.2,0.4-0.6,0.4-1v0.5v0.4c0,0.4-0.1,0.7-0.4,0.9l0,0
	l-4.5,4.5l0,0c-0.2,0.2-0.4,0.6-0.4,1v5.1c0-0.4,0.1-0.7,0.4-0.9l0,0l4.5-4.5l0,0c0.2-0.2,0.4-0.6,0.4-1v0.5v0.4
	c0,0.4-0.1,0.7-0.4,0.9l0,0l-4.5,4.5l0,0c-0.2,0.2-0.4,0.6-0.4,1v0.7c0,0.3,0.1,0.6,0.3,0.8l1.3,1.3l3.2-3.2l0,0
	c0.2-0.2,0.4-0.6,0.4-1v0.5v0.4c0,0.4-0.1,0.7-0.4,0.9l0,0l-2.8,2.8l7.5,7.5l2-3.7c0.2-0.3,0.5-0.5,0.9-0.5h0.3h0.5
	c-0.4,0-0.8,0.2-0.9,0.6l0,0l-2.2,4c0.1,0,0.2,0,0.3,0h3.9l0.7-4.1c0-0.3,0.3-0.5,0.6-0.5h0h0.1h0.6c-0.3,0-0.6,0.2-0.7,0.5
	l-0.7,4.1h4.2l-0.7-4.1c0-0.3-0.3-0.5-0.7-0.5h0.5h0.1h0c0.3,0,0.6,0.2,0.7,0.5l0.7,4.1H39c0.1,0,0.2,0,0.3,0l-2.2-4
	c-0.2-0.3-0.5-0.6-0.9-0.6h0.5h0.3c0.4,0,0.7,0.2,0.9,0.5l2,3.7l7.5-7.5l-2.8-2.8l0,0c-0.2-0.2-0.4-0.6-0.4-0.9v-0.4v-0.5
	c0,0.4,0.2,0.7,0.4,1l0,0l3.2,3.2l1.3-1.3c0.2-0.2,0.3-0.5,0.3-0.8v-0.7c0-0.4-0.2-0.7-0.4-1l0,0l-4.5-4.5l0,0
	c-0.2-0.2-0.4-0.6-0.4-0.9v-0.4v-0.5c0,0.4,0.2,0.7,0.4,1l0,0l4.5,4.5l0,0c0.2,0.2,0.4,0.6,0.4,0.9v-5.1c0-0.4-0.2-0.7-0.4-1l0,0
	l-4.5-4.5l0,0c-0.2-0.2-0.4-0.6-0.4-0.9v-0.4L44.2,20.9L44.2,20.9z M36,21.2c0.2-1.4,0.2-1.2,0.9-1.5c0.9-0.2,1.4-0.3,1.9-0.3
	c0.5,0,1.5,0,2.5,0.4c0.4,0.1,0.2,0.3,0.3,1.9c-0.1,0.6-0.1,0.5-0.7,0.6c-0.5,0-0.8,0-1.4-0.1c-0.2-0.3-0.5-1.7-1-1.5
	c-0.2,0.1,0,0.2-0.3,0.9c-0.1,0.1-0.2,0.4-0.3,0.6c-0.5,0.2-0.9,0.2-1.5,0.2C35.9,22.2,36,21.9,36,21.2 M35,20c0-0.3,0-0.4,0.2-0.4
	c0.4,0,0.4,0.1,0.4,0.3c0,0.3,0,0.9,0,1.5c0,0.3,0,1.1-0.3,1.2c-0.3,0-0.5,0.1-0.5-0.3c0-0.2,0.1-0.5,0.1-0.8
	C35.1,21.3,35.1,20.4,35,20 M35.2,23.6c0.3,0.1,0.4,1.2,0.4,1.2c0,0.1,0,1.1,0,1.4c0,0.3,0,0.5,0,0.7C35.5,27,35.3,27,35.1,27
	c-0.2-0.1-0.2-0.9-0.2-1.2c0-0.3,0-0.9-0.1-1.6C34.7,23.6,34.8,23.6,35.2,23.6 M33.9,23c0-0.5,0.2-2.1,0.1-2.5c0-0.3,0-0.6,0.1-0.9
	c0-0.1,0.2-0.1,0.4-0.2c0.4-0.1,0.3,1.2,0.3,1.2c0,1.1-0.3,3.3-0.3,3.9c-0.1,1,0.3,3.5,0.1,3.7c-0.1,0-0.4,0.1-0.5-0.1
	c-0.2-0.7-0.2-1.7-0.3-2.6C33.7,24.6,33.9,23.4,33.9,23 M32.9,21.5C33,20.8,33,20,33,19.8c0.1-0.1,0.2-0.1,0.5-0.1
	c0.2,0.2,0.3,2.4-0.2,2.8c-0.2,0-0.4,0-0.4-0.1C32.8,22.3,32.8,22,32.9,21.5 M32.6,24.4c0-0.9,0.1-1,0.3-1.3c0.2-0.1,0.4,0,0.5,0.2
	c0.1,0.3-0.1,1.9-0.1,2.6c0,0.7,0.2,1.4-0.1,1.5c-0.3,0.1-0.5,0-0.5-0.2C32.6,26.4,32.6,24.4,32.6,24.4 M31.8,35.3
	c0,1.2-0.1,1-0.9,1c-0.7,0-2.5,0-2.6,0c0,0.2,0,0.5,0,0.8c0,0.4,0.3,0.6-1.6,0.8c-0.4,0-3.2-0.1-3.4-0.4c-0.2-0.3-0.5-0.9-0.3-1.4
	c0.4,0.3,0.8,0.6,1.6,0.9c0.7,0.1,1.8,0.2,2.4,0.1c0.4-0.2,0.4-0.3,0.4-0.7c-1.3-0.1-2-0.1-2.4-0.1c-0.7-0.1-0.7-0.1-0.7-0.4
	c0-0.3,0.1-0.4,0.6-0.3c0.3,0,0.8,0.1,1.6,0.1h1V35c0,0-1,0-1.4,0c-1.2-0.1-1-0.2-1-0.8c0.1-1,0.1-0.8,1-0.9c0.8,0,2.9,0,3.4,0
	c0.9,0.1,0.8,0.1,0.7,0.9c-0.1,0.4,0.1,0.6-0.8,0.7c-0.1,0-1,0.1-1,0.1v0.6h1.9c0,0,0.7,0,0.7-0.6c0-0.6,0.1-1.4,0.1-1.4
	s0-0.6-0.6-0.6c-0.6,0-3.8-0.1-5.1,0c-1,0-1,0.2-1.1,0.5c-0.1,0.4-0.2,2-0.5,1.9c-0.8-0.2-0.6-0.3-0.6-0.7c0-0.6,0.1-1.2,0.2-1.8
	c0.2-0.4,0.2-0.7,2.7-0.6c1.1,0,4.5,0,4.5,0c0.8,0,1,0,1.1,0.8C31.9,34.1,31.9,34.5,31.8,35.3 M24.3,30.2c0,0.2,0.3,0.2,0.9,0.1
	c0.5,0,0.5-0.1,0.5,0.3c0,0.2,0,0.2-0.3,0.2c-1.2,0.1-1.1,0-1.1,0.3c0,0.2,0.2,0.2,0.9,0.2c0.5,0,0.5-0.1,0.5,0.2c0,0.2,0,0.3,0,0.3
	c-0.3,0-1.6,0.1-2,0.1c-0.4,0-0.4,0-0.3-0.7c0-0.6,0.1-1.2,0.2-1.8c0.1-0.3,0.2-0.2,1.5-0.3c0.7,0,0.6,0,0.7,0.4
	c0,0.2,0,0.2-1.1,0.3C24.2,29.9,24.3,29.8,24.3,30.2 M26.3,29.6c-0.1,0,0.2-0.4,0.3-0.4c0.2,0,0.6,0.3,0.8,0.3c0,0,0.2,0.1,0.4,0.2
	c0.1,0,0.1-0.1,0.2-0.1c0.1-0.1,0.8-0.5,1-0.5c0,0,0.3,0.4,0.1,0.5c-0.2,0.2-0.5,0.3-0.6,0.4c0.2,0.1,0.4,0.2,0.4,0.2
	c0.3,0.1,0.3,0.2,0.3,0.5c0,0.1-0.2,0.2-0.2,0.2c-0.1,0.1-0.3,0.2-0.4,0.2c0.1,0.1,0.2,0.1,0.4,0.2c0.5,0.3,0.5,0.2,0.3,0.5
	c-0.2,0.3-0.5,0.1-0.6,0.1c-0.1,0-0.5-0.2-0.9-0.4c-0.2,0.1-0.5,0.3-0.8,0.4c-0.4,0.2-0.4,0.2-0.6,0c-0.2-0.3-0.1-0.3,0.3-0.5
	c0,0,0.2-0.1,0.4-0.2c-0.2-0.1-0.4-0.2-0.5-0.3c0,0-0.2-0.1-0.2-0.2c0-0.1-0.1-0.3,0.4-0.5c0.1-0.1,0.2-0.1,0.4-0.2
	C26.7,29.9,26.4,29.7,26.3,29.6 M31.6,31.9c-0.3,0.1-1.9,0.1-1.9,0.1c-0.1,0-0.2,0-0.2-0.2c0-0.3,0-0.3,0.5-0.3c0.5,0,0.9,0,0.9-0.3
	c0-0.2-0.1-0.3-0.9-0.2c-0.5,0-0.5,0-0.5-0.1c-0.1-0.3-0.1-0.5,0.3-0.5c0.6,0,1.1,0,1.1-0.2c0.1-0.2,0-0.3-0.5-0.3
	c-1,0.1-1,0.1-1-0.2c0-0.3-0.1-0.4,0.7-0.4c0.8,0,1.4-0.1,1.5,0.2c0.1,0.4,0.1,1,0.2,1.8C31.9,31.9,31.9,31.8,31.6,31.9 M31.5,28.5
	c-0.3,0.1-1.3-1.2-2-2.2c-0.2-0.3-1.1-1.1-2-1.1c-1.2-0.1-2.9,2.1-3.3,2.8c-0.2,0.3-0.5,0.7-0.8,0.5c-0.3-0.2-0.3-0.2-0.1-0.8
	c0.3-0.8,1.8-2.5,2.5-2.9c0.7-0.6,0.9-0.7,1.1-1.5c0.1-1.4,0.1-1.7-0.3-1.8c-0.4,0-2.2-0.3-2.2,0.8c-0.1,0.9-0.1,1.4-0.1,1.7
	c0,0.6,0,0.5-0.6,0.5c-0.4,0-0.2-1.9-0.2-3.1c0.2-0.8,0.7-0.6,1.4-0.7c0.4,0,0.9,0,1.2,0c0.6,0,0.8-0.3,0.8-0.8
	c0-0.5,0.1-0.5,0.5-0.6c0.4-0.1,0.4,0.2,0.4,0.6c0.1,0.6-0.1,0.7,0.8,0.7c0.8,0,1.4,0,1.7,0c0.8,0.1,1.2,0,1.2,1.1
	c0,1,0.3,1.9,0,2.2c-0.1,0.2-0.5,0.3-0.7,0.3c-0.3-0.2,0.3-2.3-0.5-2.7c-0.5-0.2-1.8-0.2-2.2,0c-0.4,0.2-0.2,0.9-0.3,1.5
	c0,0.4,0,0.9,0.9,1.5c0.9,0.7,1.7,1.5,2.5,2.5C31.9,27.6,32.3,28.3,31.5,28.5 M32,16.4h-4c0-0.5,0.4-1,1-1h2.5
	c0.3,0,0.5,0.2,0.5,0.5L32,16.4L32,16.4z M35.8,33.6c-0.2,0.2-0.7,0.2-0.8,0.4s-0.1,1.5,0,1.6c0.1,0.1,0.4,0,0.8,0
	c0.3,0,0.4,0.9,0.2,1c-0.2,0-1.1,0.1-1.6,0.2c-0.5,0.1-0.8,0.1-1.2,0.1c-0.4,0-0.4-0.2-0.5-0.6c0-0.4,0-0.5,0.3-0.5
	c0.3,0,0.6,0.1,0.9-0.2c0.2-0.2,0.1-0.7,0.1-1.1c0-0.3,0.1-0.6-0.4-0.5c-0.7,0.2-0.7,0.3-0.7-0.9c0-0.4,0-0.8,0-1
	c0-0.5-0.1-0.8,0.6-1c0.3-0.1,0.1,0.8,0.1,1.2c0,0.4,0,0.8,0.2,0.8c0.6,0,0.2-1.2,0.3-2.3c0-0.7-0.1-1,0.4-1.1
	c0.5-0.1,0.4,0.1,0.4,0.7c0,0.5,0,2.4,0.2,2.4c0.5,0,0.4-1.6,0.3-1.9c0-0.4-0.1-0.6,0.3-0.7c0.3,0,0.3,0,0.4,0.3
	c0.1,0.4,0.1,0.8,0.1,1.1c0,0.4,0,0.6-0.1,1C36.1,33.2,36,33.4,35.8,33.6 M37.8,37.9c-0.2,0.1-0.3,0.1-0.7,0c-0.2,0-0.3-0.3-0.5-0.9
	c-0.1-0.3-0.2-0.6-0.3-1.3c-0.1-0.8-0.2-1.5,0-1.9c0.1-0.3,0.3-0.8,0.4-1.1c0.1-0.3,0.3-0.6,0.4-1.2c0.1-0.6,0.1-0.6,0-1.1
	c0-0.2-0.2-0.5-0.3-0.7c-0.2-0.3-0.3-0.5,0.1-0.6c0.6,0,0.5,0,0.8,0.4c0.3,0.6,0.3,0.9,0.3,1.1c0.1,0.5,0,1-0.4,2.1
	c-0.5,0.9-0.6,1.2-0.6,2.1c0.1,0.9,0.3,1.9,0.4,2.3C37.7,37.3,38,37.8,37.8,37.9 M39.3,36.6c0.2,0.6,0.6,1.2,0.3,1.2
	c-0.2,0-0.6,0-0.7-0.1c-0.2-0.3-0.5-0.8-0.6-1.6c-0.1-0.9-0.2-1.4-0.1-2.2c0.3-1.2,0.9-1.5,1-2.5c0.1-0.6,0-0.8-0.1-1.1
	c-0.2-0.5-0.7-1.2-0.1-1.2c0.4,0,0.4,0,0.6,0.2c0.2,0.2,0.5,1,0.6,1.5c0.1,0.7-0.3,1.4-0.5,2.1C39.3,33.6,39,34,39,34.7
	C39,35.2,39.1,35.8,39.3,36.6 M41.6,32.1c-0.3,1.2-0.6,1.1-0.8,2.4c0,0.5,0.3,1.6,0.4,2.1c0.1,0.4,0.5,1.2,0.3,1.2
	c-0.2,0.1-0.6,0-0.8-0.2c-0.2-0.2-0.4-0.9-0.5-1.2c-0.2-0.8-0.5-2.1,0.1-3.2c0.2-0.3,0.4-0.8,0.6-1.7c0-1.2-0.1-1.3-0.2-1.9
	c-0.1-0.3-0.3-0.6,0-0.6c0.9,0,0.8,0.3,1,0.8C41.7,30.6,41.7,30.9,41.6,32.1 M41.3,28.1c-0.5,0.2-0.4-0.1-0.5-0.7c0-0.4,0-1.8-0.6-2
	c-0.5-0.2-1-0.3-1.1-0.1c-0.1,0.1,0,2.5,0,2.5c0,0.6-0.2,0.5-0.5,0.5c-0.5-0.1-0.4-0.4-0.4-0.9c0-0.5,0-2.1-0.1-2.2
	c-0.1-0.1-1-0.1-1.2,0.8c-0.2,0.9-0.2,1.5-0.3,1.8c0,0.1,0,0.3-0.1,0.3c-0.2,0.1-0.5,0.1-0.6,0c-0.1-0.3,0-0.9,0-1.5
	c0.1-0.6,0.2-1.1,0.4-1.6c0.1-0.3,1-0.6,1.6-0.8c0.3-0.1,0.2-0.6,0.1-0.6c-0.2,0-0.8,0-1.2,0.1c-0.3,0-0.5,0.2-0.7-0.3
	c-0.1-0.2-0.2-0.5,0.5-0.5l0.9-0.1c0,0,0.6,0,0.7-0.1c0-0.2,0-0.5,0.2-0.7c0-0.1,0.3,0,0.5,0c0.3,0.1,0.2,0.1,0.3,0.5
	c0,0.2,0,0.2,1,0.2c0.8,0,1.3-0.1,1.3,0.2c0,0.2,0,0.5-0.1,0.5c-0.1,0.1-0.3,0.1-0.7,0.1c-0.5,0-1.4,0-1.5,0c-0.1,0-0.1,0.2,0,0.4
	c0,0.1,0,0.1,0.5,0.2c1.7,0.5,1.6,0.4,1.9,1.5c0.2,0.9,0.1,1.4,0.2,1.7C41.7,27.7,41.8,27.9,41.3,28.1"/>
<path class="st1" d="M40.4,21.4l0.4,0c0.2,0,0.2-0.4,0.1-0.8c-0.1-0.3-0.5-0.2-0.9-0.2c-0.2,0-0.2,0-0.2,0.3
	C39.9,21.4,39.9,21.3,40.4,21.4"/>
<path class="st1" d="M36.9,21.4l0.3,0c0.6,0,0.5-0.4,0.6-0.8c0-0.2-0.3-0.1-0.6-0.1c-0.3,0.1-0.3,0-0.4,0.3
	C36.8,20.9,36.7,21.3,36.9,21.4"/>
</svg>
